<mxfile host="app.diagrams.net" modified="2024-05-03T19:06:18.316Z" agent="Mozilla/5.0 (Windows NT 10.0; Win64; x64) AppleWebKit/537.36 (KHTML, like Gecko) Chrome/121.0.0.0 Safari/537.36 OPR/107.0.0.0" etag="EwR8Xxj1E-6OJAfU690g" version="24.3.1" type="github">
  <diagram id="C5RBs43oDa-KdzZeNtuy" name="Page-1">
    <mxGraphModel dx="1561" dy="726" grid="0" gridSize="10" guides="0" tooltips="1" connect="0" arrows="0" fold="1" page="1" pageScale="1" pageWidth="1200" pageHeight="1920" math="0" shadow="0">
      <root>
        <mxCell id="WIyWlLk6GJQsqaUBKTNV-0" />
        <mxCell id="WIyWlLk6GJQsqaUBKTNV-1" parent="WIyWlLk6GJQsqaUBKTNV-0" />
        <mxCell id="zkfFHV4jXpPFQw0GAbJ--0" value="Виды" style="swimlane;fontStyle=0;align=center;verticalAlign=top;childLayout=stackLayout;horizontal=1;startSize=26;horizontalStack=0;resizeParent=1;resizeLast=0;collapsible=1;marginBottom=0;rounded=0;shadow=0;strokeWidth=1;" parent="WIyWlLk6GJQsqaUBKTNV-1" vertex="1">
          <mxGeometry x="653" y="276" width="160" height="108" as="geometry">
            <mxRectangle x="230" y="140" width="160" height="26" as="alternateBounds" />
          </mxGeometry>
        </mxCell>
        <mxCell id="zkfFHV4jXpPFQw0GAbJ--1" value="PR            Код вида" style="text;align=left;verticalAlign=top;spacingLeft=4;spacingRight=4;overflow=hidden;rotatable=0;points=[[0,0.5],[1,0.5]];portConstraint=eastwest;" parent="zkfFHV4jXpPFQw0GAbJ--0" vertex="1">
          <mxGeometry y="26" width="160" height="26" as="geometry" />
        </mxCell>
        <mxCell id="c0Nt_vPHu5qprPO2AvH4-62" value="" style="endArrow=none;html=1;rounded=0;exitX=0.186;exitY=1.132;exitDx=0;exitDy=0;exitPerimeter=0;entryX=0.185;entryY=0.013;entryDx=0;entryDy=0;entryPerimeter=0;" parent="zkfFHV4jXpPFQw0GAbJ--0" source="zkfFHV4jXpPFQw0GAbJ--3" target="zkfFHV4jXpPFQw0GAbJ--1" edge="1">
          <mxGeometry width="50" height="50" relative="1" as="geometry">
            <mxPoint x="20" y="100" as="sourcePoint" />
            <mxPoint x="70" y="50" as="targetPoint" />
          </mxGeometry>
        </mxCell>
        <mxCell id="zkfFHV4jXpPFQw0GAbJ--2" value="2            Название" style="text;align=left;verticalAlign=top;spacingLeft=4;spacingRight=4;overflow=hidden;rotatable=0;points=[[0,0.5],[1,0.5]];portConstraint=eastwest;rounded=0;shadow=0;html=0;" parent="zkfFHV4jXpPFQw0GAbJ--0" vertex="1">
          <mxGeometry y="52" width="160" height="26" as="geometry" />
        </mxCell>
        <mxCell id="zkfFHV4jXpPFQw0GAbJ--3" value="3            Описание" style="text;align=left;verticalAlign=top;spacingLeft=4;spacingRight=4;overflow=hidden;rotatable=0;points=[[0,0.5],[1,0.5]];portConstraint=eastwest;rounded=0;shadow=0;html=0;" parent="zkfFHV4jXpPFQw0GAbJ--0" vertex="1">
          <mxGeometry y="78" width="160" height="26" as="geometry" />
        </mxCell>
        <mxCell id="c0Nt_vPHu5qprPO2AvH4-61" value="" style="endArrow=none;html=1;rounded=0;entryX=0.993;entryY=-0.074;entryDx=0;entryDy=0;entryPerimeter=0;exitX=0.003;exitY=-0.074;exitDx=0;exitDy=0;exitPerimeter=0;" parent="zkfFHV4jXpPFQw0GAbJ--0" source="zkfFHV4jXpPFQw0GAbJ--2" target="zkfFHV4jXpPFQw0GAbJ--2" edge="1">
          <mxGeometry width="50" height="50" relative="1" as="geometry">
            <mxPoint x="60" y="140" as="sourcePoint" />
            <mxPoint x="110" y="90" as="targetPoint" />
          </mxGeometry>
        </mxCell>
        <mxCell id="zkfFHV4jXpPFQw0GAbJ--6" value="Экспонаты" style="swimlane;fontStyle=0;align=center;verticalAlign=top;childLayout=stackLayout;horizontal=1;startSize=26;horizontalStack=0;resizeParent=1;resizeLast=0;collapsible=1;marginBottom=0;rounded=0;shadow=0;strokeWidth=1;" parent="WIyWlLk6GJQsqaUBKTNV-1" vertex="1">
          <mxGeometry x="323" y="124" width="200" height="260" as="geometry">
            <mxRectangle x="130" y="380" width="160" height="26" as="alternateBounds" />
          </mxGeometry>
        </mxCell>
        <mxCell id="zkfFHV4jXpPFQw0GAbJ--7" value="PR         Код экспоната" style="text;align=left;verticalAlign=top;spacingLeft=4;spacingRight=4;overflow=hidden;rotatable=0;points=[[0,0.5],[1,0.5]];portConstraint=eastwest;" parent="zkfFHV4jXpPFQw0GAbJ--6" vertex="1">
          <mxGeometry y="26" width="200" height="26" as="geometry" />
        </mxCell>
        <mxCell id="c0Nt_vPHu5qprPO2AvH4-53" value="" style="endArrow=none;html=1;rounded=0;exitX=0;exitY=0.009;exitDx=0;exitDy=0;exitPerimeter=0;" parent="zkfFHV4jXpPFQw0GAbJ--6" edge="1">
          <mxGeometry width="50" height="50" relative="1" as="geometry">
            <mxPoint y="51" as="sourcePoint" />
            <mxPoint x="200" y="51" as="targetPoint" />
            <Array as="points">
              <mxPoint y="51" />
            </Array>
          </mxGeometry>
        </mxCell>
        <mxCell id="zkfFHV4jXpPFQw0GAbJ--8" value="2            Наименование" style="text;align=left;verticalAlign=top;spacingLeft=4;spacingRight=4;overflow=hidden;rotatable=0;points=[[0,0.5],[1,0.5]];portConstraint=eastwest;rounded=0;shadow=0;html=0;" parent="zkfFHV4jXpPFQw0GAbJ--6" vertex="1">
          <mxGeometry y="52" width="200" height="26" as="geometry" />
        </mxCell>
        <mxCell id="zkfFHV4jXpPFQw0GAbJ--10" value="3            Автор" style="text;align=left;verticalAlign=top;spacingLeft=4;spacingRight=4;overflow=hidden;rotatable=0;points=[[0,0.5],[1,0.5]];portConstraint=eastwest;fontStyle=0" parent="zkfFHV4jXpPFQw0GAbJ--6" vertex="1">
          <mxGeometry y="78" width="200" height="26" as="geometry" />
        </mxCell>
        <mxCell id="zkfFHV4jXpPFQw0GAbJ--11" value="4            Страна создания" style="text;align=left;verticalAlign=top;spacingLeft=4;spacingRight=4;overflow=hidden;rotatable=0;points=[[0,0.5],[1,0.5]];portConstraint=eastwest;" parent="zkfFHV4jXpPFQw0GAbJ--6" vertex="1">
          <mxGeometry y="104" width="200" height="26" as="geometry" />
        </mxCell>
        <mxCell id="c0Nt_vPHu5qprPO2AvH4-0" value="5            Количество экземпляров" style="text;align=left;verticalAlign=top;spacingLeft=4;spacingRight=4;overflow=hidden;rotatable=0;points=[[0,0.5],[1,0.5]];portConstraint=eastwest;" parent="zkfFHV4jXpPFQw0GAbJ--6" vertex="1">
          <mxGeometry y="130" width="200" height="26" as="geometry" />
        </mxCell>
        <mxCell id="c0Nt_vPHu5qprPO2AvH4-1" value="6            Вид" style="text;align=left;verticalAlign=top;spacingLeft=4;spacingRight=4;overflow=hidden;rotatable=0;points=[[0,0.5],[1,0.5]];portConstraint=eastwest;" parent="zkfFHV4jXpPFQw0GAbJ--6" vertex="1">
          <mxGeometry y="156" width="200" height="26" as="geometry" />
        </mxCell>
        <mxCell id="c0Nt_vPHu5qprPO2AvH4-55" value="" style="endArrow=none;html=1;rounded=0;exitX=0.15;exitY=0.016;exitDx=0;exitDy=0;exitPerimeter=0;entryX=0.149;entryY=0.992;entryDx=0;entryDy=0;entryPerimeter=0;" parent="zkfFHV4jXpPFQw0GAbJ--6" source="zkfFHV4jXpPFQw0GAbJ--7" target="c0Nt_vPHu5qprPO2AvH4-64" edge="1">
          <mxGeometry width="50" height="50" relative="1" as="geometry">
            <mxPoint x="30" y="30" as="sourcePoint" />
            <mxPoint x="30" y="240" as="targetPoint" />
            <Array as="points" />
          </mxGeometry>
        </mxCell>
        <mxCell id="c0Nt_vPHu5qprPO2AvH4-2" value="7            История происхождения" style="text;align=left;verticalAlign=top;spacingLeft=4;spacingRight=4;overflow=hidden;rotatable=0;points=[[0,0.5],[1,0.5]];portConstraint=eastwest;" parent="zkfFHV4jXpPFQw0GAbJ--6" vertex="1">
          <mxGeometry y="182" width="200" height="26" as="geometry" />
        </mxCell>
        <mxCell id="c0Nt_vPHu5qprPO2AvH4-3" value="8            Состояние" style="text;align=left;verticalAlign=top;spacingLeft=4;spacingRight=4;overflow=hidden;rotatable=0;points=[[0,0.5],[1,0.5]];portConstraint=eastwest;" parent="zkfFHV4jXpPFQw0GAbJ--6" vertex="1">
          <mxGeometry y="208" width="200" height="26" as="geometry" />
        </mxCell>
        <mxCell id="c0Nt_vPHu5qprPO2AvH4-64" value="9            Ответственный" style="text;align=left;verticalAlign=top;spacingLeft=4;spacingRight=4;overflow=hidden;rotatable=0;points=[[0,0.5],[1,0.5]];portConstraint=eastwest;" parent="zkfFHV4jXpPFQw0GAbJ--6" vertex="1">
          <mxGeometry y="234" width="200" height="26" as="geometry" />
        </mxCell>
        <mxCell id="zkfFHV4jXpPFQw0GAbJ--13" value="Выставка" style="swimlane;fontStyle=0;align=center;verticalAlign=top;childLayout=stackLayout;horizontal=1;startSize=26;horizontalStack=0;resizeParent=1;resizeLast=0;collapsible=1;marginBottom=0;rounded=0;shadow=0;strokeWidth=1;" parent="WIyWlLk6GJQsqaUBKTNV-1" vertex="1">
          <mxGeometry x="63" y="254" width="159" height="130" as="geometry">
            <mxRectangle x="340" y="380" width="170" height="26" as="alternateBounds" />
          </mxGeometry>
        </mxCell>
        <mxCell id="zkfFHV4jXpPFQw0GAbJ--14" value="1            Экспонат" style="text;align=left;verticalAlign=top;spacingLeft=4;spacingRight=4;overflow=hidden;rotatable=0;points=[[0,0.5],[1,0.5]];portConstraint=eastwest;" parent="zkfFHV4jXpPFQw0GAbJ--13" vertex="1">
          <mxGeometry y="26" width="159" height="26" as="geometry" />
        </mxCell>
        <mxCell id="c0Nt_vPHu5qprPO2AvH4-4" value="2            Зал" style="text;align=left;verticalAlign=top;spacingLeft=4;spacingRight=4;overflow=hidden;rotatable=0;points=[[0,0.5],[1,0.5]];portConstraint=eastwest;" parent="zkfFHV4jXpPFQw0GAbJ--13" vertex="1">
          <mxGeometry y="52" width="159" height="26" as="geometry" />
        </mxCell>
        <mxCell id="c0Nt_vPHu5qprPO2AvH4-50" value="" style="endArrow=none;html=1;rounded=0;entryX=0.18;entryY=0.006;entryDx=0;entryDy=0;entryPerimeter=0;" parent="zkfFHV4jXpPFQw0GAbJ--13" target="zkfFHV4jXpPFQw0GAbJ--14" edge="1">
          <mxGeometry width="50" height="50" relative="1" as="geometry">
            <mxPoint x="29" y="129" as="sourcePoint" />
            <mxPoint x="30" y="52" as="targetPoint" />
            <Array as="points" />
          </mxGeometry>
        </mxCell>
        <mxCell id="M3-gr9AZML5E623fwjWF-1" value="4            Дата Начала" style="text;align=left;verticalAlign=top;spacingLeft=4;spacingRight=4;overflow=hidden;rotatable=0;points=[[0,0.5],[1,0.5]];portConstraint=eastwest;" parent="zkfFHV4jXpPFQw0GAbJ--13" vertex="1">
          <mxGeometry y="78" width="159" height="26" as="geometry" />
        </mxCell>
        <mxCell id="M3-gr9AZML5E623fwjWF-2" value="5            Дата Конца" style="text;align=left;verticalAlign=top;spacingLeft=4;spacingRight=4;overflow=hidden;rotatable=0;points=[[0,0.5],[1,0.5]];portConstraint=eastwest;" parent="zkfFHV4jXpPFQw0GAbJ--13" vertex="1">
          <mxGeometry y="104" width="159" height="26" as="geometry" />
        </mxCell>
        <mxCell id="zkfFHV4jXpPFQw0GAbJ--17" value="Хранение" style="swimlane;fontStyle=0;align=center;verticalAlign=top;childLayout=stackLayout;horizontal=1;startSize=26;horizontalStack=0;resizeParent=1;resizeLast=0;collapsible=1;marginBottom=0;rounded=0;shadow=0;strokeWidth=1;" parent="WIyWlLk6GJQsqaUBKTNV-1" vertex="1">
          <mxGeometry x="638" y="94" width="185" height="139" as="geometry">
            <mxRectangle x="525" y="70" width="160" height="26" as="alternateBounds" />
          </mxGeometry>
        </mxCell>
        <mxCell id="c0Nt_vPHu5qprPO2AvH4-44" value="" style="endArrow=none;html=1;rounded=0;entryX=0.096;entryY=0;entryDx=0;entryDy=0;entryPerimeter=0;" parent="zkfFHV4jXpPFQw0GAbJ--17" edge="1">
          <mxGeometry width="50" height="50" relative="1" as="geometry">
            <mxPoint x="30" y="139" as="sourcePoint" />
            <mxPoint x="30.160000000000082" y="26" as="targetPoint" />
            <Array as="points">
              <mxPoint x="30" y="139" />
            </Array>
          </mxGeometry>
        </mxCell>
        <mxCell id="zkfFHV4jXpPFQw0GAbJ--18" value="1            Хранилище" style="text;align=left;verticalAlign=top;spacingLeft=4;spacingRight=4;overflow=hidden;rotatable=0;points=[[0,0.5],[1,0.5]];portConstraint=eastwest;" parent="zkfFHV4jXpPFQw0GAbJ--17" vertex="1">
          <mxGeometry y="26" width="185" height="26" as="geometry" />
        </mxCell>
        <mxCell id="zkfFHV4jXpPFQw0GAbJ--19" value="2            Экспонат" style="text;align=left;verticalAlign=top;spacingLeft=4;spacingRight=4;overflow=hidden;rotatable=0;points=[[0,0.5],[1,0.5]];portConstraint=eastwest;rounded=0;shadow=0;html=0;" parent="zkfFHV4jXpPFQw0GAbJ--17" vertex="1">
          <mxGeometry y="52" width="185" height="26" as="geometry" />
        </mxCell>
        <mxCell id="zkfFHV4jXpPFQw0GAbJ--20" value="3            Дата прибытия" style="text;align=left;verticalAlign=top;spacingLeft=4;spacingRight=4;overflow=hidden;rotatable=0;points=[[0,0.5],[1,0.5]];portConstraint=eastwest;rounded=0;shadow=0;html=0;" parent="zkfFHV4jXpPFQw0GAbJ--17" vertex="1">
          <mxGeometry y="78" width="185" height="26" as="geometry" />
        </mxCell>
        <mxCell id="zkfFHV4jXpPFQw0GAbJ--21" value="4            Дата отбытия" style="text;align=left;verticalAlign=top;spacingLeft=4;spacingRight=4;overflow=hidden;rotatable=0;points=[[0,0.5],[1,0.5]];portConstraint=eastwest;rounded=0;shadow=0;html=0;" parent="zkfFHV4jXpPFQw0GAbJ--17" vertex="1">
          <mxGeometry y="104" width="185" height="26" as="geometry" />
        </mxCell>
        <mxCell id="c0Nt_vPHu5qprPO2AvH4-7" value="Залы" style="swimlane;fontStyle=0;align=center;verticalAlign=top;childLayout=stackLayout;horizontal=1;startSize=26;horizontalStack=0;resizeParent=1;resizeLast=0;collapsible=1;marginBottom=0;rounded=0;shadow=0;strokeWidth=1;" parent="WIyWlLk6GJQsqaUBKTNV-1" vertex="1">
          <mxGeometry x="243" y="469" width="160" height="136" as="geometry">
            <mxRectangle x="340" y="380" width="170" height="26" as="alternateBounds" />
          </mxGeometry>
        </mxCell>
        <mxCell id="c0Nt_vPHu5qprPO2AvH4-8" value="PR            Код зала" style="text;align=left;verticalAlign=top;spacingLeft=4;spacingRight=4;overflow=hidden;rotatable=0;points=[[0,0.5],[1,0.5]];portConstraint=eastwest;" parent="c0Nt_vPHu5qprPO2AvH4-7" vertex="1">
          <mxGeometry y="26" width="160" height="26" as="geometry" />
        </mxCell>
        <mxCell id="c0Nt_vPHu5qprPO2AvH4-51" value="" style="endArrow=none;html=1;rounded=0;entryX=0.999;entryY=0.993;entryDx=0;entryDy=0;entryPerimeter=0;exitX=0;exitY=0.009;exitDx=0;exitDy=0;exitPerimeter=0;" parent="c0Nt_vPHu5qprPO2AvH4-7" edge="1">
          <mxGeometry width="50" height="50" relative="1" as="geometry">
            <mxPoint y="52" as="sourcePoint" />
            <mxPoint x="160" y="52.190000000000055" as="targetPoint" />
            <Array as="points">
              <mxPoint y="52" />
            </Array>
          </mxGeometry>
        </mxCell>
        <mxCell id="c0Nt_vPHu5qprPO2AvH4-9" value="2            Наименование" style="text;align=left;verticalAlign=top;spacingLeft=4;spacingRight=4;overflow=hidden;rotatable=0;points=[[0,0.5],[1,0.5]];portConstraint=eastwest;" parent="c0Nt_vPHu5qprPO2AvH4-7" vertex="1">
          <mxGeometry y="52" width="160" height="26" as="geometry" />
        </mxCell>
        <mxCell id="c0Nt_vPHu5qprPO2AvH4-52" value="" style="endArrow=none;html=1;rounded=0;exitX=0.192;exitY=1.192;exitDx=0;exitDy=0;exitPerimeter=0;entryX=0.192;entryY=0.011;entryDx=0;entryDy=0;entryPerimeter=0;" parent="c0Nt_vPHu5qprPO2AvH4-7" target="c0Nt_vPHu5qprPO2AvH4-8" edge="1" source="c6wxe7rSIqW3baKt8WpA-8">
          <mxGeometry width="50" height="50" relative="1" as="geometry">
            <mxPoint x="31" y="170" as="sourcePoint" />
            <mxPoint x="29" y="25" as="targetPoint" />
            <Array as="points" />
          </mxGeometry>
        </mxCell>
        <mxCell id="c0Nt_vPHu5qprPO2AvH4-10" value="3            Площадь" style="text;align=left;verticalAlign=top;spacingLeft=4;spacingRight=4;overflow=hidden;rotatable=0;points=[[0,0.5],[1,0.5]];portConstraint=eastwest;" parent="c0Nt_vPHu5qprPO2AvH4-7" vertex="1">
          <mxGeometry y="78" width="160" height="26" as="geometry" />
        </mxCell>
        <mxCell id="c6wxe7rSIqW3baKt8WpA-8" value="4            Сотрудник" style="text;align=left;verticalAlign=top;spacingLeft=4;spacingRight=4;overflow=hidden;rotatable=0;points=[[0,0.5],[1,0.5]];portConstraint=eastwest;" vertex="1" parent="c0Nt_vPHu5qprPO2AvH4-7">
          <mxGeometry y="104" width="160" height="26" as="geometry" />
        </mxCell>
        <mxCell id="c0Nt_vPHu5qprPO2AvH4-12" value="Хранилища" style="swimlane;fontStyle=0;align=center;verticalAlign=top;childLayout=stackLayout;horizontal=1;startSize=26;horizontalStack=0;resizeParent=1;resizeLast=0;collapsible=1;marginBottom=0;rounded=0;shadow=0;strokeWidth=1;" parent="WIyWlLk6GJQsqaUBKTNV-1" vertex="1">
          <mxGeometry x="973" y="94" width="210" height="160" as="geometry">
            <mxRectangle x="550" y="140" width="160" height="26" as="alternateBounds" />
          </mxGeometry>
        </mxCell>
        <mxCell id="c0Nt_vPHu5qprPO2AvH4-13" value="PR        Код хранилища" style="text;align=left;verticalAlign=top;spacingLeft=4;spacingRight=4;overflow=hidden;rotatable=0;points=[[0,0.5],[1,0.5]];portConstraint=eastwest;" parent="c0Nt_vPHu5qprPO2AvH4-12" vertex="1">
          <mxGeometry y="26" width="210" height="26" as="geometry" />
        </mxCell>
        <mxCell id="c0Nt_vPHu5qprPO2AvH4-14" value="2            Наименование хранилища" style="text;align=left;verticalAlign=top;spacingLeft=4;spacingRight=4;overflow=hidden;rotatable=0;points=[[0,0.5],[1,0.5]];portConstraint=eastwest;rounded=0;shadow=0;html=0;" parent="c0Nt_vPHu5qprPO2AvH4-12" vertex="1">
          <mxGeometry y="52" width="210" height="26" as="geometry" />
        </mxCell>
        <mxCell id="c0Nt_vPHu5qprPO2AvH4-42" value="" style="endArrow=none;html=1;rounded=0;entryX=0.134;entryY=0.032;entryDx=0;entryDy=0;entryPerimeter=0;" parent="c0Nt_vPHu5qprPO2AvH4-12" target="c0Nt_vPHu5qprPO2AvH4-13" edge="1">
          <mxGeometry width="50" height="50" relative="1" as="geometry">
            <mxPoint x="28" y="160" as="sourcePoint" />
            <mxPoint x="-40" y="260" as="targetPoint" />
            <Array as="points">
              <mxPoint x="28" y="160" />
            </Array>
          </mxGeometry>
        </mxCell>
        <mxCell id="c0Nt_vPHu5qprPO2AvH4-15" value="3            Адрес" style="text;align=left;verticalAlign=top;spacingLeft=4;spacingRight=4;overflow=hidden;rotatable=0;points=[[0,0.5],[1,0.5]];portConstraint=eastwest;rounded=0;shadow=0;html=0;" parent="c0Nt_vPHu5qprPO2AvH4-12" vertex="1">
          <mxGeometry y="78" width="210" height="26" as="geometry" />
        </mxCell>
        <mxCell id="c0Nt_vPHu5qprPO2AvH4-16" value="4            Площадь" style="text;align=left;verticalAlign=top;spacingLeft=4;spacingRight=4;overflow=hidden;rotatable=0;points=[[0,0.5],[1,0.5]];portConstraint=eastwest;rounded=0;shadow=0;html=0;" parent="c0Nt_vPHu5qprPO2AvH4-12" vertex="1">
          <mxGeometry y="104" width="210" height="26" as="geometry" />
        </mxCell>
        <mxCell id="c0Nt_vPHu5qprPO2AvH4-17" value="5            Вид" style="text;align=left;verticalAlign=top;spacingLeft=4;spacingRight=4;overflow=hidden;rotatable=0;points=[[0,0.5],[1,0.5]];portConstraint=eastwest;rounded=0;shadow=0;html=0;" parent="c0Nt_vPHu5qprPO2AvH4-12" vertex="1">
          <mxGeometry y="130" width="210" height="26" as="geometry" />
        </mxCell>
        <mxCell id="c0Nt_vPHu5qprPO2AvH4-43" value="" style="endArrow=none;html=1;rounded=0;entryX=1.007;entryY=0.994;entryDx=0;entryDy=0;entryPerimeter=0;exitX=0;exitY=0.009;exitDx=0;exitDy=0;exitPerimeter=0;" parent="c0Nt_vPHu5qprPO2AvH4-12" source="c0Nt_vPHu5qprPO2AvH4-14" target="c0Nt_vPHu5qprPO2AvH4-13" edge="1">
          <mxGeometry width="50" height="50" relative="1" as="geometry">
            <mxPoint x="38" y="170" as="sourcePoint" />
            <mxPoint x="38" y="37" as="targetPoint" />
            <Array as="points">
              <mxPoint y="52" />
            </Array>
          </mxGeometry>
        </mxCell>
        <mxCell id="c0Nt_vPHu5qprPO2AvH4-23" value="Состояния" style="swimlane;fontStyle=0;align=center;verticalAlign=top;childLayout=stackLayout;horizontal=1;startSize=26;horizontalStack=0;resizeParent=1;resizeLast=0;collapsible=1;marginBottom=0;rounded=0;shadow=0;strokeWidth=1;" parent="WIyWlLk6GJQsqaUBKTNV-1" vertex="1">
          <mxGeometry x="693" y="414" width="160" height="110" as="geometry">
            <mxRectangle x="340" y="380" width="170" height="26" as="alternateBounds" />
          </mxGeometry>
        </mxCell>
        <mxCell id="c0Nt_vPHu5qprPO2AvH4-24" value="PR            Код состояния" style="text;align=left;verticalAlign=top;spacingLeft=4;spacingRight=4;overflow=hidden;rotatable=0;points=[[0,0.5],[1,0.5]];portConstraint=eastwest;" parent="c0Nt_vPHu5qprPO2AvH4-23" vertex="1">
          <mxGeometry y="26" width="160" height="26" as="geometry" />
        </mxCell>
        <mxCell id="c0Nt_vPHu5qprPO2AvH4-54" value="" style="endArrow=none;html=1;rounded=0;exitX=0;exitY=0.009;exitDx=0;exitDy=0;exitPerimeter=0;" parent="c0Nt_vPHu5qprPO2AvH4-23" edge="1">
          <mxGeometry width="50" height="50" relative="1" as="geometry">
            <mxPoint x="-1" y="51.60000000000002" as="sourcePoint" />
            <mxPoint x="160" y="51.60000000000002" as="targetPoint" />
            <Array as="points">
              <mxPoint x="-1" y="51.60000000000002" />
            </Array>
          </mxGeometry>
        </mxCell>
        <mxCell id="c0Nt_vPHu5qprPO2AvH4-25" value="2            Состояние" style="text;align=left;verticalAlign=top;spacingLeft=4;spacingRight=4;overflow=hidden;rotatable=0;points=[[0,0.5],[1,0.5]];portConstraint=eastwest;" parent="c0Nt_vPHu5qprPO2AvH4-23" vertex="1">
          <mxGeometry y="52" width="160" height="26" as="geometry" />
        </mxCell>
        <mxCell id="c0Nt_vPHu5qprPO2AvH4-26" value="3            Требования" style="text;align=left;verticalAlign=top;spacingLeft=4;spacingRight=4;overflow=hidden;rotatable=0;points=[[0,0.5],[1,0.5]];portConstraint=eastwest;" parent="c0Nt_vPHu5qprPO2AvH4-23" vertex="1">
          <mxGeometry y="78" width="160" height="32" as="geometry" />
        </mxCell>
        <mxCell id="c0Nt_vPHu5qprPO2AvH4-56" value="" style="endArrow=none;html=1;rounded=0;exitX=0.187;exitY=0.002;exitDx=0;exitDy=0;exitPerimeter=0;entryX=0.189;entryY=1.01;entryDx=0;entryDy=0;entryPerimeter=0;" parent="c0Nt_vPHu5qprPO2AvH4-23" source="c0Nt_vPHu5qprPO2AvH4-24" target="c0Nt_vPHu5qprPO2AvH4-26" edge="1">
          <mxGeometry width="50" height="50" relative="1" as="geometry">
            <mxPoint x="-70" y="110" as="sourcePoint" />
            <mxPoint x="30" y="110" as="targetPoint" />
            <Array as="points" />
          </mxGeometry>
        </mxCell>
        <mxCell id="c0Nt_vPHu5qprPO2AvH4-28" value="Сотрудники" style="swimlane;fontStyle=0;align=center;verticalAlign=top;childLayout=stackLayout;horizontal=1;startSize=26;horizontalStack=0;resizeParent=1;resizeLast=0;collapsible=1;marginBottom=0;rounded=0;shadow=0;strokeWidth=1;" parent="WIyWlLk6GJQsqaUBKTNV-1" vertex="1">
          <mxGeometry x="593" y="574" width="180" height="170" as="geometry">
            <mxRectangle x="340" y="380" width="170" height="26" as="alternateBounds" />
          </mxGeometry>
        </mxCell>
        <mxCell id="c0Nt_vPHu5qprPO2AvH4-29" value="PR            Код сотрудника" style="text;align=left;verticalAlign=top;spacingLeft=4;spacingRight=4;overflow=hidden;rotatable=0;points=[[0,0.5],[1,0.5]];portConstraint=eastwest;" parent="c0Nt_vPHu5qprPO2AvH4-28" vertex="1">
          <mxGeometry y="26" width="180" height="26" as="geometry" />
        </mxCell>
        <mxCell id="c0Nt_vPHu5qprPO2AvH4-58" value="" style="endArrow=none;html=1;rounded=0;entryX=1.001;entryY=-0.008;entryDx=0;entryDy=0;entryPerimeter=0;exitX=0;exitY=0.009;exitDx=0;exitDy=0;exitPerimeter=0;" parent="c0Nt_vPHu5qprPO2AvH4-28" target="c0Nt_vPHu5qprPO2AvH4-30" edge="1">
          <mxGeometry width="50" height="50" relative="1" as="geometry">
            <mxPoint y="51.60000000000002" as="sourcePoint" />
            <mxPoint x="211" y="51.60000000000002" as="targetPoint" />
            <Array as="points">
              <mxPoint y="51.60000000000002" />
            </Array>
          </mxGeometry>
        </mxCell>
        <mxCell id="c0Nt_vPHu5qprPO2AvH4-30" value="2            ФИО" style="text;align=left;verticalAlign=top;spacingLeft=4;spacingRight=4;overflow=hidden;rotatable=0;points=[[0,0.5],[1,0.5]];portConstraint=eastwest;" parent="c0Nt_vPHu5qprPO2AvH4-28" vertex="1">
          <mxGeometry y="52" width="180" height="26" as="geometry" />
        </mxCell>
        <mxCell id="c0Nt_vPHu5qprPO2AvH4-31" value="3            Должность" style="text;align=left;verticalAlign=top;spacingLeft=4;spacingRight=4;overflow=hidden;rotatable=0;points=[[0,0.5],[1,0.5]];portConstraint=eastwest;" parent="c0Nt_vPHu5qprPO2AvH4-28" vertex="1">
          <mxGeometry y="78" width="180" height="26" as="geometry" />
        </mxCell>
        <mxCell id="c0Nt_vPHu5qprPO2AvH4-32" value="4            Контактный телефон" style="text;align=left;verticalAlign=top;spacingLeft=4;spacingRight=4;overflow=hidden;rotatable=0;points=[[0,0.5],[1,0.5]];portConstraint=eastwest;" parent="c0Nt_vPHu5qprPO2AvH4-28" vertex="1">
          <mxGeometry y="104" width="180" height="26" as="geometry" />
        </mxCell>
        <mxCell id="c0Nt_vPHu5qprPO2AvH4-33" value="5            Стаж" style="text;align=left;verticalAlign=top;spacingLeft=4;spacingRight=4;overflow=hidden;rotatable=0;points=[[0,0.5],[1,0.5]];portConstraint=eastwest;" parent="c0Nt_vPHu5qprPO2AvH4-28" vertex="1">
          <mxGeometry y="130" width="180" height="40" as="geometry" />
        </mxCell>
        <mxCell id="c0Nt_vPHu5qprPO2AvH4-63" value="" style="endArrow=none;html=1;rounded=0;entryX=0.161;entryY=0.009;entryDx=0;entryDy=0;entryPerimeter=0;exitX=0.166;exitY=0.997;exitDx=0;exitDy=0;exitPerimeter=0;" parent="c0Nt_vPHu5qprPO2AvH4-28" source="c0Nt_vPHu5qprPO2AvH4-33" target="c0Nt_vPHu5qprPO2AvH4-29" edge="1">
          <mxGeometry width="50" height="50" relative="1" as="geometry">
            <mxPoint x="50" y="120" as="sourcePoint" />
            <mxPoint x="100" y="70" as="targetPoint" />
          </mxGeometry>
        </mxCell>
        <mxCell id="c0Nt_vPHu5qprPO2AvH4-34" value="Должности" style="swimlane;fontStyle=0;align=center;verticalAlign=top;childLayout=stackLayout;horizontal=1;startSize=26;horizontalStack=0;resizeParent=1;resizeLast=0;collapsible=1;marginBottom=0;rounded=0;shadow=0;strokeWidth=1;" parent="WIyWlLk6GJQsqaUBKTNV-1" vertex="1">
          <mxGeometry x="933" y="524" width="160" height="130" as="geometry">
            <mxRectangle x="340" y="380" width="170" height="26" as="alternateBounds" />
          </mxGeometry>
        </mxCell>
        <mxCell id="c0Nt_vPHu5qprPO2AvH4-35" value="PR         Код должности" style="text;align=left;verticalAlign=top;spacingLeft=4;spacingRight=4;overflow=hidden;rotatable=0;points=[[0,0.5],[1,0.5]];portConstraint=eastwest;" parent="c0Nt_vPHu5qprPO2AvH4-34" vertex="1">
          <mxGeometry y="26" width="160" height="26" as="geometry" />
        </mxCell>
        <mxCell id="c0Nt_vPHu5qprPO2AvH4-60" value="" style="endArrow=none;html=1;rounded=0;entryX=0.996;entryY=0.97;entryDx=0;entryDy=0;entryPerimeter=0;exitX=0;exitY=0.009;exitDx=0;exitDy=0;exitPerimeter=0;" parent="c0Nt_vPHu5qprPO2AvH4-34" target="c0Nt_vPHu5qprPO2AvH4-35" edge="1">
          <mxGeometry width="50" height="50" relative="1" as="geometry">
            <mxPoint y="51.430000000000064" as="sourcePoint" />
            <mxPoint x="211" y="51.430000000000064" as="targetPoint" />
            <Array as="points">
              <mxPoint y="51.430000000000064" />
            </Array>
          </mxGeometry>
        </mxCell>
        <mxCell id="c0Nt_vPHu5qprPO2AvH4-36" value="2            Название" style="text;align=left;verticalAlign=top;spacingLeft=4;spacingRight=4;overflow=hidden;rotatable=0;points=[[0,0.5],[1,0.5]];portConstraint=eastwest;" parent="c0Nt_vPHu5qprPO2AvH4-34" vertex="1">
          <mxGeometry y="52" width="160" height="26" as="geometry" />
        </mxCell>
        <mxCell id="c0Nt_vPHu5qprPO2AvH4-37" value="3            Зарплата" style="text;align=left;verticalAlign=top;spacingLeft=4;spacingRight=4;overflow=hidden;rotatable=0;points=[[0,0.5],[1,0.5]];portConstraint=eastwest;" parent="c0Nt_vPHu5qprPO2AvH4-34" vertex="1">
          <mxGeometry y="78" width="160" height="26" as="geometry" />
        </mxCell>
        <mxCell id="c0Nt_vPHu5qprPO2AvH4-38" value="4            Описание" style="text;align=left;verticalAlign=top;spacingLeft=4;spacingRight=4;overflow=hidden;rotatable=0;points=[[0,0.5],[1,0.5]];portConstraint=eastwest;" parent="c0Nt_vPHu5qprPO2AvH4-34" vertex="1">
          <mxGeometry y="104" width="160" height="26" as="geometry" />
        </mxCell>
        <mxCell id="c0Nt_vPHu5qprPO2AvH4-59" value="" style="endArrow=none;html=1;rounded=0;entryX=0.185;entryY=-0.013;entryDx=0;entryDy=0;entryPerimeter=0;exitX=0.184;exitY=1.015;exitDx=0;exitDy=0;exitPerimeter=0;" parent="c0Nt_vPHu5qprPO2AvH4-34" source="c0Nt_vPHu5qprPO2AvH4-38" target="c0Nt_vPHu5qprPO2AvH4-35" edge="1">
          <mxGeometry width="50" height="50" relative="1" as="geometry">
            <mxPoint y="180" as="sourcePoint" />
            <mxPoint x="211" y="180" as="targetPoint" />
            <Array as="points">
              <mxPoint x="30" y="130" />
            </Array>
          </mxGeometry>
        </mxCell>
        <mxCell id="c0Nt_vPHu5qprPO2AvH4-76" value="" style="edgeStyle=entityRelationEdgeStyle;fontSize=12;html=1;endArrow=ERoneToMany;rounded=0;entryX=1;entryY=0.5;entryDx=0;entryDy=0;exitX=0;exitY=0.5;exitDx=0;exitDy=0;" parent="WIyWlLk6GJQsqaUBKTNV-1" source="c0Nt_vPHu5qprPO2AvH4-29" target="c0Nt_vPHu5qprPO2AvH4-64" edge="1">
          <mxGeometry width="100" height="100" relative="1" as="geometry">
            <mxPoint x="543" y="673" as="sourcePoint" />
            <mxPoint x="533" y="355" as="targetPoint" />
            <Array as="points">
              <mxPoint x="573" y="504" />
              <mxPoint x="573" y="494" />
              <mxPoint x="553" y="434" />
              <mxPoint x="473" y="500" />
              <mxPoint x="503" y="534" />
            </Array>
          </mxGeometry>
        </mxCell>
        <mxCell id="c6wxe7rSIqW3baKt8WpA-9" value="" style="edgeStyle=entityRelationEdgeStyle;fontSize=12;html=1;endArrow=ERoneToMany;startArrow=ERmandOne;rounded=0;entryX=1.005;entryY=0.572;entryDx=0;entryDy=0;entryPerimeter=0;" edge="1" parent="WIyWlLk6GJQsqaUBKTNV-1" source="c0Nt_vPHu5qprPO2AvH4-29" target="c6wxe7rSIqW3baKt8WpA-8">
          <mxGeometry width="100" height="100" relative="1" as="geometry">
            <mxPoint x="548" y="635" as="sourcePoint" />
            <mxPoint x="502" y="627" as="targetPoint" />
          </mxGeometry>
        </mxCell>
        <mxCell id="c6wxe7rSIqW3baKt8WpA-10" value="" style="edgeStyle=entityRelationEdgeStyle;fontSize=12;html=1;endArrow=ERoneToMany;startArrow=ERmandOne;rounded=0;" edge="1" parent="WIyWlLk6GJQsqaUBKTNV-1" source="c0Nt_vPHu5qprPO2AvH4-8" target="c0Nt_vPHu5qprPO2AvH4-4">
          <mxGeometry width="100" height="100" relative="1" as="geometry">
            <mxPoint x="238" y="508" as="sourcePoint" />
            <mxPoint x="92" y="622" as="targetPoint" />
          </mxGeometry>
        </mxCell>
        <mxCell id="c6wxe7rSIqW3baKt8WpA-11" value="" style="edgeStyle=entityRelationEdgeStyle;fontSize=12;html=1;endArrow=ERoneToMany;startArrow=ERmandOne;rounded=0;entryX=0.995;entryY=0.092;entryDx=0;entryDy=0;entryPerimeter=0;exitX=0.003;exitY=0.535;exitDx=0;exitDy=0;exitPerimeter=0;" edge="1" parent="WIyWlLk6GJQsqaUBKTNV-1" source="c0Nt_vPHu5qprPO2AvH4-13" target="zkfFHV4jXpPFQw0GAbJ--17">
          <mxGeometry width="100" height="100" relative="1" as="geometry">
            <mxPoint x="1025" y="73" as="sourcePoint" />
            <mxPoint x="836" y="48" as="targetPoint" />
          </mxGeometry>
        </mxCell>
        <mxCell id="c6wxe7rSIqW3baKt8WpA-12" value="" style="edgeStyle=entityRelationEdgeStyle;fontSize=12;html=1;endArrow=ERoneToMany;startArrow=ERmandOne;rounded=0;entryX=0;entryY=0.531;entryDx=0;entryDy=0;entryPerimeter=0;exitX=1.001;exitY=0.536;exitDx=0;exitDy=0;exitPerimeter=0;" edge="1" parent="WIyWlLk6GJQsqaUBKTNV-1" source="zkfFHV4jXpPFQw0GAbJ--7" target="zkfFHV4jXpPFQw0GAbJ--18">
          <mxGeometry width="100" height="100" relative="1" as="geometry">
            <mxPoint x="524" y="163" as="sourcePoint" />
            <mxPoint x="434" y="618" as="targetPoint" />
          </mxGeometry>
        </mxCell>
        <mxCell id="c6wxe7rSIqW3baKt8WpA-14" value="" style="edgeStyle=entityRelationEdgeStyle;fontSize=12;html=1;endArrow=ERoneToMany;startArrow=ERmandOne;rounded=0;entryX=-0.006;entryY=0.504;entryDx=0;entryDy=0;entryPerimeter=0;" edge="1" parent="WIyWlLk6GJQsqaUBKTNV-1" target="c0Nt_vPHu5qprPO2AvH4-17">
          <mxGeometry width="100" height="100" relative="1" as="geometry">
            <mxPoint x="813" y="314" as="sourcePoint" />
            <mxPoint x="1071" y="325" as="targetPoint" />
          </mxGeometry>
        </mxCell>
        <mxCell id="c6wxe7rSIqW3baKt8WpA-15" value="" style="edgeStyle=entityRelationEdgeStyle;fontSize=12;html=1;endArrow=ERoneToMany;startArrow=ERmandOne;rounded=0;entryX=1.002;entryY=0.608;entryDx=0;entryDy=0;entryPerimeter=0;exitX=-0.006;exitY=0.574;exitDx=0;exitDy=0;exitPerimeter=0;" edge="1" parent="WIyWlLk6GJQsqaUBKTNV-1" source="zkfFHV4jXpPFQw0GAbJ--1" target="c0Nt_vPHu5qprPO2AvH4-1">
          <mxGeometry width="100" height="100" relative="1" as="geometry">
            <mxPoint x="823" y="324" as="sourcePoint" />
            <mxPoint x="982" y="247" as="targetPoint" />
          </mxGeometry>
        </mxCell>
        <mxCell id="c6wxe7rSIqW3baKt8WpA-16" value="" style="edgeStyle=entityRelationEdgeStyle;fontSize=12;html=1;endArrow=ERoneToMany;startArrow=ERmandOne;rounded=0;" edge="1" parent="WIyWlLk6GJQsqaUBKTNV-1" source="zkfFHV4jXpPFQw0GAbJ--7" target="zkfFHV4jXpPFQw0GAbJ--14">
          <mxGeometry width="100" height="100" relative="1" as="geometry">
            <mxPoint x="145" y="194" as="sourcePoint" />
            <mxPoint x="245" y="94" as="targetPoint" />
          </mxGeometry>
        </mxCell>
        <mxCell id="c6wxe7rSIqW3baKt8WpA-17" value="" style="edgeStyle=entityRelationEdgeStyle;fontSize=12;html=1;endArrow=ERoneToMany;startArrow=ERmandOne;rounded=0;exitX=-0.004;exitY=0.534;exitDx=0;exitDy=0;exitPerimeter=0;entryX=0.999;entryY=0.552;entryDx=0;entryDy=0;entryPerimeter=0;" edge="1" parent="WIyWlLk6GJQsqaUBKTNV-1" source="c0Nt_vPHu5qprPO2AvH4-24" target="c0Nt_vPHu5qprPO2AvH4-3">
          <mxGeometry width="100" height="100" relative="1" as="geometry">
            <mxPoint x="573" y="518" as="sourcePoint" />
            <mxPoint x="673" y="418" as="targetPoint" />
          </mxGeometry>
        </mxCell>
        <mxCell id="c6wxe7rSIqW3baKt8WpA-18" value="" style="edgeStyle=entityRelationEdgeStyle;fontSize=12;html=1;endArrow=ERoneToMany;startArrow=ERmandOne;rounded=0;exitX=-0.001;exitY=0.482;exitDx=0;exitDy=0;exitPerimeter=0;entryX=0.998;entryY=0.578;entryDx=0;entryDy=0;entryPerimeter=0;" edge="1" parent="WIyWlLk6GJQsqaUBKTNV-1" source="c0Nt_vPHu5qprPO2AvH4-35" target="c0Nt_vPHu5qprPO2AvH4-31">
          <mxGeometry width="100" height="100" relative="1" as="geometry">
            <mxPoint x="799" y="829" as="sourcePoint" />
            <mxPoint x="899" y="729" as="targetPoint" />
          </mxGeometry>
        </mxCell>
      </root>
    </mxGraphModel>
  </diagram>
</mxfile>
